<svg class="logo s-lcPIA5KohG9z logo--navbar" viewBox="0 0 28.2 28.2" xmlns="http://www.w3.org/2000/svg" fill="currentColor">
  <path d="M14.5.005a14.322 14.322 0 0 0-3.033.24C4.937 1.48 0 7.217 0 14.104s4.94 12.624 11.47 13.859c.854.162 1.735.246 2.634.246 7.98 0 14.412-6.63 14.094-14.68C27.905 6.169 21.862.203 14.5.005Zm.243 25.366c-.24.014-.395-.261-.247-.452a17.572 17.572 0 0 0 3.706-10.815c0-4.077-1.383-7.832-3.706-10.816-.148-.19.003-.465.243-.451 5.938.331 10.649 5.247 10.649 11.267S20.68 25.039 14.743 25.37Zm25.572-.955h6.436c5.75"/>
</svg>
