<svg class="logo s-lcPIA5KohG9z logo--navbar" viewBox="0 0 120 29" xmlns="http://www.w3.org/2000/svg" fill="currentColor">
  <path d="M14.5.005a14.322 14.322 0 0 0-3.033.24C4.937 1.48 0 7.217 0 14.104s4.94 12.624 11.47 13.859c.854.162 1.735.246 2.634.246 7.98 0 14.412-6.63 14.094-14.68C27.905 6.169 21.862.203 14.5.005Zm.243 25.366c-.24.014-.395-.261-.247-.452a17.572 17.572 0 0 0 3.706-10.815c0-4.077-1.383-7.832-3.706-10.816-.148-.19.003-.465.243-.451 5.938.331 10.649 5.247 10.649 11.267S20.68 25.039 14.743 25.37Zm25.572-.955h6.436c5.75 0 10.41-4.66 10.41-10.41 0-5.749-4.66-10.41-10.41-10.41h-6.436v3.218h6.436a7.192 7.192 0 0 1 0 14.385h-6.436v3.217Zm46.805-.233c1.018.355 2.164.532 3.44.532 1.545 0 2.883-.235 4.016-.705 1.142-.48 2.02-1.185 2.634-2.116.623-.94.935-2.087.935-3.44 0-1.295-.283-2.331-.85-3.108-.556-.777-1.328-1.387-2.316-1.828-.989-.441-2.298-.864-3.93-1.267-1.045-.259-1.866-.508-2.46-.748-.595-.25-1.046-.561-1.353-.935-.307-.384-.46-.874-.46-1.468 0-.605.157-1.123.474-1.555.317-.432.768-.758 1.353-.978.595-.23 1.286-.346 2.073-.346.7 0 1.347.12 1.942.36.595.23 1.113.57 1.555 1.022.441.441.787.969 1.036 1.583l2.662-1.713a6.305 6.305 0 0 0-1.525-2.245c-.662-.633-1.478-1.118-2.447-1.454-.96-.335-2.048-.503-3.267-.503-1.42 0-2.672.24-3.756.72-1.084.47-1.933 1.17-2.547 2.1-.605.922-.907 2.044-.907 3.368 0 1.17.264 2.135.791 2.893.528.749 1.267 1.348 2.217 1.8.96.44 2.216.853 3.77 1.237 1.085.269 1.934.532 2.548.791.624.26 1.099.595 1.425 1.008.336.413.504.96.504 1.64 0 .605-.168 1.123-.504 1.555-.326.422-.801.748-1.425.979-.624.23-1.372.345-2.245.345-.835 0-1.588-.144-2.26-.432a5.365 5.365 0 0 1-1.712-1.165 5.925 5.925 0 0 1-1.138-1.699l-2.748 1.742a8.367 8.367 0 0 0 1.827 2.49 7.727 7.727 0 0 0 2.649 1.54Zm-21.627-.326c1.228.614 2.73.922 4.505.922 1.765 0 3.262-.308 4.49-.922 1.228-.623 2.15-1.51 2.763-2.662.614-1.151.921-2.538.921-4.16V3.68h-3.324v13.168c0 1.68-.408 2.936-1.223 3.771-.816.835-2.025 1.252-3.627 1.252-1.603 0-2.816-.417-3.642-1.252-.815-.835-1.223-2.091-1.223-3.77V3.678h-3.339v13.356c0 1.603.312 2.985.936 4.145.623 1.161 1.545 2.054 2.763 2.677Zm37.798.576V3.68h3.324v9.369h.029a17.1 17.1 0 0 1 .605-.633c.23-.23.465-.47.705-.72l7.973-8.016H120l-8.607 8.75 8.463 12.003h-3.915l-6.865-9.887-2.461 2.374v7.513h-3.324Z"/>
</svg>
